<svg xmlns="http://www.w3.org/2000/svg" viewBox="17.8 -481.2 572.4 520.4">
  <title>L_r U+0072</title>
  <path d="M456 397C503 397 519 364 519 335C519 330 517 326 517 323C517 320 520 320 522 320C524 320 532 340 550 362C566 381 569 388 569 398C569 417 551 454 496 454C404 454 311 343 246 268C254 284 296 374 296 404C296 432 279 460 239 460C195 460 134 410 126 404C120 400 120 398 120 396C120 394 122 392 124 392C126 392 128 394 134 398C158 414 179 427 199 427C211 427 227 422 227 396C227 366 212 330 112 142C90 112 73 88 56 66C40 45 39 40 39 32C39 23 48 16 57 6C70 -10 75 -18 87 -18C103 -18 147 73 200 180C250 247 362 397 456 397Z" transform="scale(1,-1)" fill="black" fill-rule="nonzero"/>
</svg>
