<svg xmlns="http://www.w3.org/2000/svg" viewBox="39.96 -511.04 784.08 557.08">
  <title>L_w U+0077</title>
  <path d="M394 -5C405 7 442 94 522 208C556 256 605 322 664 380C699 414 725 439 770 459C784 466 795 466 795 468C795 472 786 471 776 473C759 477 748 482 741 482C691 482 536 265 505 220C469 167 434 115 391 51C391 131 410 177 410 222C410 248 401 268 373 268C318 268 200 121 154 77C232 251 302 372 302 406C302 446 276 466 242 466C200 466 128 406 126 404C120 400 120 398 120 396C120 394 122 392 124 392C126 392 128 394 134 398C158 414 188 436 210 436C222 436 231 426 231 407C231 383 188 302 160 248C127 183 69 63 69 11C69 -3 75 -13 85 -13C103 -13 139 35 168 68C244 156 309 222 334 222C340 222 342 216 342 205C342 159 321 82 321 48C321 11 330 -17 364 -17C370 -17 386 -13 394 -5Z" transform="scale(1,-1)" fill="black" fill-rule="nonzero"/>
</svg>
