<svg xmlns="http://www.w3.org/2000/svg" viewBox="0 0 2100 840">
  <rect width="100%" height="100%" fill="white"/>
  <rect x="0" y="0" width="420" height="420" fill="none" stroke="#bbb"/>
  <path d="M625 1083C311 1083 106 836 106 512C106 182 317 -29 602 -29C911 -29 1120 217 1120 545C1120 870 913 1083 625 1083ZM606 1047C776 1047 922 905 922 539C922 205 797 8 621 8C451 8 305 150 305 518C305 852 430 1047 606 1047Z" transform="translate(66.672662 333.219424) scale(0.233813 -0.233813)" fill="black"/>
  <rect x="420" y="0" width="420" height="420" fill="none" stroke="#bbb"/>
  <path d="M518 1077C414 1004 293 977 96 973V928C281 928 334 903 334 707V211C334 78 252 43 117 43V0C180 2 305 8 432 8C543 8 659 2 715 0V43C573 43 518 80 518 211Z" transform="translate(532.107707 340) scale(0.241411 -0.241411)" fill="black"/>
  <rect x="840" y="0" width="420" height="420" fill="none" stroke="#bbb"/>
  <path d="M500 1083C279 1083 158 956 96 827L129 809C201 938 295 1001 403 1001C530 1001 608 936 608 780C608 442 270 213 104 35V0H584C707 0 852 -2 889 -10C883 53 881 117 881 262H846C836 184 821 158 709 158H293C442 360 807 553 807 825C807 991 688 1083 500 1083Z" transform="translate(932.84538 337.621226) scale(0.237877 -0.237877)" fill="black"/>
  <rect x="1260" y="0" width="420" height="420" fill="none" stroke="#bbb"/>
  <path d="M465 1083C262 1083 152 961 90 827L125 811C188 934 285 993 397 993C506 993 575 938 575 809C575 705 528 598 418 514C391 516 369 522 346 522C317 522 293 508 293 483C293 467 303 457 326 457C350 457 381 471 422 487C555 477 639 360 639 201C639 -102 356 -266 76 -272V-309C426 -309 834 -111 834 201C834 412 645 508 455 512C610 567 760 690 760 850C760 995 635 1083 465 1083Z" transform="translate(1385.014368 282.284483) scale(0.186782 -0.186782)" fill="black"/>
  <rect x="1680" y="0" width="420" height="420" fill="none" stroke="#bbb"/>
  <path d="M938 100C932 160 930 217 930 352H895C885 274 870 248 758 248H733V1083H700L35 154V111H569V-289H733V110C825 109 911 107 938 100ZM569 248H156L569 832Z" transform="translate(1797.806122 285.233236) scale(0.189504 -0.189504)" fill="black"/>
  <rect x="0" y="420" width="420" height="420" fill="none" stroke="#bbb"/>
  <path d="M645 1157C635 1079 621 1053 508 1053H276C238 1053 197 1055 166 1061L127 451L147 438C205 461 244 473 315 473C481 473 573 371 573 199C573 -111 332 -264 92 -266V-303C412 -303 768 -98 768 219C768 399 653 535 406 535C293 535 225 504 166 473L190 868H408C522 868 657 866 692 858C686 926 684 1001 684 1157Z" transform="translate(133.424658 706.041096) scale(0.178082 -0.178082)" fill="black"/>
  <rect x="420" y="420" width="420" height="420" fill="none" stroke="#bbb"/>
  <path d="M612 897C519 897 386 856 318 729C363 1239 611 1375 815 1440L807 1481C530 1427 113 1171 113 553C113 184 270 -29 530 -29C776 -29 981 143 981 451C981 737 803 897 612 897ZM551 12C438 12 311 125 311 557C311 593 312 628 314 661C364 796 480 838 561 838C682 838 782 731 782 436C782 131 672 12 551 12Z" transform="translate(535.81457 755.006623) scale(0.172185 -0.172185)" fill="black"/>
  <rect x="840" y="420" width="420" height="420" fill="none" stroke="#bbb"/>
  <path d="M815 1053H360C238 1053 92 1055 55 1063C61 999 63 922 63 776H98C109 856 123 881 236 881H721C539 562 281 219 281 -188C281 -248 309 -303 373 -303C430 -303 469 -260 469 -199C469 -156 461 -102 461 -37C457 432 698 731 815 1010Z" transform="translate(967.203514 702.327965) scale(0.190337 -0.190337)" fill="black"/>
  <rect x="1260" y="420" width="420" height="420" fill="none" stroke="#bbb"/>
  <path d="M627 820C781 924 887 1043 887 1198C887 1382 733 1479 549 1479C338 1479 174 1350 174 1159C174 978 298 862 435 752C251 661 106 516 106 315C106 84 301 -29 518 -29C774 -29 961 129 961 362C961 581 790 701 627 820ZM526 1442C653 1442 723 1333 723 1171C723 1044 687 930 596 843C458 945 334 1052 334 1223C334 1358 418 1442 526 1442ZM530 8C352 8 287 172 287 346C287 497 335 632 466 728C623 603 786 481 786 276C786 102 668 8 530 8Z" transform="translate(1378.017241 755) scale(0.172414 -0.172414)" fill="black"/>
  <rect x="1680" y="420" width="420" height="420" fill="none" stroke="#bbb"/>
  <path d="M526 1083C281 1083 76 911 76 604C76 317 254 158 444 158C534 158 658 195 729 307C666 -96 434 -208 242 -262L250 -303C526 -258 944 -18 944 543C944 887 786 1083 526 1083ZM496 217C375 217 274 324 274 618C274 924 385 1042 506 1042C618 1042 745 938 745 539C745 481 742 428 737 378C684 255 574 217 496 217Z" transform="translate(1794.329004 703.160173) scale(0.18759 -0.18759)" fill="black"/>
</svg>
